<svg xmlns="http://www.w3.org/2000/svg" width="57" height="57" viewBox="0 0 57 57"><g id="Grupo_29" data-name="Grupo 29" transform="translate(0 -0.002)"><path id="Placeholder" d="M28.5,0A28.5,28.5,0,1,1,0,28.5,28.5,28.5,0,0,1,28.5,0Z" transform="translate(0 0.002)" fill="#fff"></path><path id="Trazado_109" data-name="Trazado 109" d="M7.937,0A7.945,7.945,0,0,0,0,7.937c0,5.5,7.164,12.729,7.468,13.035a.664.664,0,0,0,.937,0c.3-.306,7.468-7.533,7.468-13.035A7.945,7.945,0,0,0,7.937,0m0,11.9A3.968,3.968,0,1,1,11.9,7.937,3.973,3.973,0,0,1,7.937,11.9" transform="translate(21.355 17.919)" fill="#146afd"></path></g></svg>