<svg xmlns="http://www.w3.org/2000/svg" width="57" height="57" viewBox="0 0 57 57"><g id="Instagram" transform="translate(-0.374 0.149)"><path id="Placeholder" d="M28.5,0A28.5,28.5,0,1,1,0,28.5,28.5,28.5,0,0,1,28.5,0Z" transform="translate(0.374 -0.149)" fill="#fff"></path><path id="instagram-2" data-name="instagram" d="M10.925,20c-1.293,0-2.806-.044-5.057-.147a7.352,7.352,0,0,1-2.415-.462,5.046,5.046,0,0,1-2.911-2.9C-.28,14.377.076,5.98.08,5.9A5.835,5.835,0,0,1,1.691,1.729,5.87,5.87,0,0,1,5.868.122C7.654.04,9.17,0,10.5,0c5.584,0,6.733.717,7.747,1.729,1.56,1.557,2.011,3.56,1.61,12.35A7.289,7.289,0,0,1,19.4,16.49C18.363,19.147,16.3,20,10.925,20ZM8.95,1.77c-4.426,0-5.275.506-5.992,1.221A4.32,4.32,0,0,0,1.871,5.977c-.06,1.324-.244,8.366.343,9.865A3.27,3.27,0,0,0,4.1,17.726a5.478,5.478,0,0,0,1.848.341c2.219.1,3.844.149,5.112.149,4.453,0,5.948-.532,6.667-2.373A5.467,5.467,0,0,0,18.072,14c.395-8.551-.05-9.974-1.086-11.008a4.338,4.338,0,0,0-2.992-1.084C11.945,1.815,10.3,1.77,8.95,1.77ZM9.971,15.085a5.1,5.1,0,1,1,5.11-5.1A5.109,5.109,0,0,1,9.971,15.085Zm0-8.406a3.309,3.309,0,1,0,3.317,3.308A3.316,3.316,0,0,0,9.971,6.679Zm5.312-.8a1.191,1.191,0,1,1,1.2-1.192A1.194,1.194,0,0,1,15.283,5.881Z" transform="translate(18.374 18.851)" fill="#146afd"></path></g></svg>