<svg xmlns="http://www.w3.org/2000/svg" xmlns:xlink="http://www.w3.org/1999/xlink" width="57" height="57" viewBox="0 0 57 57"><defs><clipPath id="clip-path"><rect id="Rect&#xE1;ngulo_21" data-name="Rect&#xE1;ngulo 21" width="16.78" height="16.778" fill="#146afd"></rect></clipPath></defs><g id="Twitter" transform="translate(0 0.019)"><circle id="Placeholder" cx="28.5" cy="28.5" r="28.5" transform="translate(0 -0.019)" fill="#fff"></circle><g id="Grupo_4957" data-name="Grupo 4957" transform="translate(-190.89 -235.876)"><g id="Grupo_4957-2" data-name="Grupo 4957" transform="translate(211 255.968)" clip-path="url(#clip-path)"><path id="Trazado_110" data-name="Trazado 110" d="M6.949,10.338A6.771,6.771,0,0,1,4.9,6.493a.575.575,0,0,1,.165-.481l1.3-1.3A.579.579,0,0,0,6.447,4L4.384.8a.579.579,0,0,0-.75-.211L.321,2.146A.575.575,0,0,0,0,2.721a16.012,16.012,0,0,0,4.876,9.686,16.008,16.008,0,0,0,9.686,4.876.575.575,0,0,0,.575-.318l1.56-3.313a.579.579,0,0,0-.21-.748l-3.2-2.063a.578.578,0,0,0-.716.081l-1.3,1.3a.575.575,0,0,1-.481.165A6.771,6.771,0,0,1,6.949,10.338Z" transform="translate(0 -0.507)" fill="#146afd"></path><path id="Trazado_111" data-name="Trazado 111" d="M243.871,94.352a.579.579,0,0,1-.579-.579,4.344,4.344,0,0,0-4.339-4.339.579.579,0,1,1,0-1.157,5.5,5.5,0,0,1,5.5,5.5.579.579,0,0,1-.579.579" transform="translate(-230.563 -85.384)" fill="#146afd"></path><path id="Trazado_112" data-name="Trazado 112" d="M246.764,8.969a.579.579,0,0,1-.579-.579,7.24,7.24,0,0,0-7.232-7.232.579.579,0,1,1,0-1.157,8.4,8.4,0,0,1,8.389,8.389.579.579,0,0,1-.579.579" transform="translate(-230.563 -0.001)" fill="#146afd"></path></g></g></g></svg>