<svg xmlns="http://www.w3.org/2000/svg" width="57" height="57" viewBox="0 0 57 57"><g id="Twitter" transform="translate(0 0.019)"><circle id="Placeholder" cx="28.5" cy="28.5" r="28.5" transform="translate(0 -0.019)" fill="#fff"></circle><path id="Twitter-2" data-name="Twitter" d="M5.854,15.75c7.024,0,10.865-6.06,10.865-11.315,0-.173,0-.344-.011-.515a7.943,7.943,0,0,0,1.905-2.058,7.372,7.372,0,0,1-2.193.626A3.971,3.971,0,0,0,18.1.288a7.472,7.472,0,0,1-2.425.965,3.717,3.717,0,0,0-5.4-.173,4.088,4.088,0,0,0-1.1,3.8A10.708,10.708,0,0,1,1.3.726,4.08,4.08,0,0,0,2.478,6.034a3.676,3.676,0,0,1-1.734-.5v.05a3.943,3.943,0,0,0,3.064,3.9,3.653,3.653,0,0,1-1.724.068,3.845,3.845,0,0,0,3.567,2.762A7.47,7.47,0,0,1,.909,14.021,7.523,7.523,0,0,1,0,13.963a10.5,10.5,0,0,0,5.854,1.783" transform="translate(20.045 21.477)" fill="#146afd"></path></g></svg>